<?xml version="1.0" encoding="UTF-8" standalone="no"?><!DOCTYPE svg PUBLIC "-//W3C//DTD SVG 1.1//EN" "http://www.w3.org/Graphics/SVG/1.1/DTD/svg11.dtd"><svg width="100%" height="100%" viewBox="0 0 64 64" version="1.1" xmlns="http://www.w3.org/2000/svg" xmlns:xlink="http://www.w3.org/1999/xlink" xml:space="preserve" xmlns:serif="http://www.serif.com/" style="fill-rule:evenodd;clip-rule:evenodd;stroke-linejoin:round;stroke-miterlimit:2;"><g><g><path d="M34.184,64l-30.652,0c-1.951,0 -3.532,-1.582 -3.532,-3.533l0,-56.935c0,-1.951 1.581,-3.532 3.532,-3.532l56.936,0c1.951,0 3.532,1.581 3.532,3.532l0,56.935c0,1.951 -1.582,3.533 -3.532,3.533l-16.309,0l0,-24.784l8.319,0l1.246,-9.659l-9.565,0l0,-6.167c0,-2.796 0.777,-4.702 4.787,-4.702l5.114,-0.002l0,-8.639c-0.884,-0.118 -3.92,-0.381 -7.453,-0.381c-7.374,0 -12.423,4.501 -12.423,12.768l0,7.123l-8.34,0l0,9.659l8.34,0l0,24.784Z" style="fill:#fff;"/></g></g></svg>