<?xml version="1.0" encoding="UTF-8" standalone="no"?><!DOCTYPE svg PUBLIC "-//W3C//DTD SVG 1.1//EN" "http://www.w3.org/Graphics/SVG/1.1/DTD/svg11.dtd"><svg width="100%" height="100%" viewBox="0 0 683 683" version="1.1" xmlns="http://www.w3.org/2000/svg" xmlns:xlink="http://www.w3.org/1999/xlink" xml:space="preserve" xmlns:serif="http://www.serif.com/" style="fill-rule:evenodd;clip-rule:evenodd;stroke-linejoin:round;stroke-miterlimit:2;"><path d="M99.656,437.438c-3.864,7.708 -2.359,17.026 3.729,23.119l4.891,4.891c14.13,-16.745 30.599,-34.917 50.573,-54.886c1.411,-1.411 2.865,-2.093 4.281,-3.395l-31.463,-31.469c-18.292,33.083 -28.959,55.687 -32.011,61.739Z" style="fill:#fff;fill-rule:nonzero;"/><path d="M271.984,523.698c-20.02,20.021 -38.145,36.521 -54.796,50.661l6.625,6.625c6.145,6.146 15.552,7.625 23.286,3.646c10.359,-5.338 26.651,-13.005 61.234,-32.265l-32.948,-32.948c-1.302,1.422 -1.984,2.869 -3.401,4.281Z" style="fill:#fff;fill-rule:nonzero;"/><path d="M261.323,421.25c-14.453,-14.453 -55.099,-1.495 -74.193,17.594c-63.875,63.875 -92.724,109.161 -105.677,135.901c-3.713,7.661 -2.167,16.833 3.854,22.854c6.032,6.036 15.219,7.568 22.886,3.854c26.14,-12.693 70.875,-41.406 135.51,-106.036c20.995,-21.006 31.354,-60.427 17.636,-74.151l-0.016,-0.016Z" style="fill:#fff;fill-rule:nonzero;"/><path d="M62.427,266.281l-56.568,56.568c-6.395,6.396 -7.708,16.297 -3.177,24.141c4.422,7.739 13.683,11.682 22.495,9.322c30.573,-8.197 57.474,-11.661 75.589,-7.015c25.77,-45.818 53.463,-87.995 82.791,-126.307c-16.963,-10.875 -73.021,-4.818 -121.13,43.291Z" style="fill:#fff;fill-rule:nonzero;"/><path d="M338.526,680.521c7.703,3.896 17.031,2.39 23.13,-3.714l56.573,-56.567c43.797,-43.808 51.505,-100.329 41.568,-118.25c-42.729,32.203 -86.016,59.395 -126.401,82.161c2.786,15.734 0.932,31 -5.656,75.583c-1.287,8.631 3.171,16.98 10.786,20.787Z" style="fill:#fff;fill-rule:nonzero;"/><path d="M397.068,200.625c-23.391,23.396 -23.391,61.453 0,84.849c23.396,23.396 61.458,23.396 84.854,0c23.396,-23.396 23.396,-61.453 0,-84.849c-23.396,-23.396 -61.458,-23.396 -84.854,0Z" style="fill:#fff;fill-rule:nonzero;"/><path d="M681.49,19.51c-0.719,-9.89 -8.594,-17.708 -18.454,-18.448c-49.119,-3.697 -98.046,2.344 -146.005,17.011c3.61,32.948 20.651,68.604 49.745,97.698c29.443,29.437 66.068,46.474 99.604,49.661c12.917,-45.265 19.042,-93.745 15.11,-145.922Z" style="fill:#fff;fill-rule:nonzero;"/><path d="M538.495,144.057c-33.281,-33.281 -53.604,-73.198 -60.125,-112.062c-120.099,49.255 -235.068,156.818 -325.917,307.922l45.136,45.135c30.838,-12.521 68.276,-15.828 92.02,7.912c23.776,23.781 20.407,61.203 7.891,92l46.62,46.619c116.26,-70.067 251.614,-180.458 309.172,-327.328c-39.813,-6.015 -80.974,-26.375 -114.797,-60.198Zm-28.292,169.703c-38.984,38.985 -102.427,38.985 -141.417,0c-38.989,-38.989 -38.989,-102.437 0,-141.421c38.99,-38.985 102.433,-38.985 141.417,0c38.99,38.989 38.99,102.432 0,141.421Z" style="fill:#fff;fill-rule:nonzero;"/></svg>